<?xml version="1.0" standalone="no"?>
<!DOCTYPE svg PUBLIC "-//W3C//DTD SVG 20010904//EN"
 "http://www.w3.org/TR/2001/REC-SVG-20010904/DTD/svg10.dtd">
<svg version="1.0" xmlns="http://www.w3.org/2000/svg"
 width="1002.000000pt" height="1002.000000pt" viewBox="0 0 1002.000000 1002.000000"
 preserveAspectRatio="xMidYMid meet">
<metadata>
Created by potrace 1.14, written by Peter Selinger 2001-2017
</metadata>
<g transform="translate(0.000000,1002.000000) scale(0.100000,-0.100000)"
fill="#000000" stroke="none">
<path d="M8685 9906 c-58 -14 -175 -74 -182 -93 -3 -7 -9 -13 -14 -13 -16 0
-137 -128 -158 -168 -6 -11 -17 -26 -24 -34 -13 -13 -91 -139 -92 -148 -1 -3
-8 -19 -18 -36 -15 -30 -77 -178 -82 -199 -1 -5 -5 -17 -8 -25 -17 -41 -109
-312 -108 -317 0 -2 -8 -23 -19 -47 -10 -24 -16 -47 -13 -50 4 -3 2 -6 -4 -6
-5 0 -10 -6 -10 -12 -1 -7 -24 -78 -53 -158 -82 -232 -90 -254 -95 -270 -6
-21 -100 -288 -115 -325 -6 -16 -13 -37 -15 -45 -2 -8 -17 -53 -34 -100 -17
-47 -31 -95 -31 -107 0 -36 32 -28 83 20 217 205 345 326 425 402 176 168 757
750 862 864 128 139 114 123 180 201 30 35 63 73 73 84 41 47 118 167 123 193
5 25 -6 39 -118 148 -68 67 -143 135 -168 152 -138 94 -255 121 -385 89z"/>
<path d="M9569 9703 c-56 -23 -126 -103 -91 -103 12 0 32 -62 32 -101 0 -38
-36 -117 -89 -194 -50 -72 -203 -253 -308 -363 -29 -30 -53 -56 -53 -58 0 -8
-682 -686 -855 -849 -92 -88 -189 -180 -215 -205 -165 -158 -239 -224 -270
-240 -62 -31 -146 -10 -188 47 l-21 28 -372 -372 c-205 -205 -377 -373 -384
-373 -7 0 -20 9 -30 20 -10 11 -21 20 -25 20 -10 0 -130 -116 -130 -125 0 -4
11 -20 24 -36 l25 -29 -25 -25 c-31 -31 -32 -31 -56 0 -23 30 -32 31 -56 7
-51 -51 -66 -85 -65 -147 1 -33 5 -74 8 -92 7 -33 -12 -59 -215 -293 -26 -30
-67 -77 -90 -105 -24 -27 -48 -53 -54 -57 -6 -4 -7 -8 -2 -8 5 0 0 -8 -10 -17
-11 -10 -33 -34 -49 -54 -17 -19 -51 -60 -76 -90 -26 -29 -89 -103 -140 -164
-52 -60 -104 -120 -116 -133 -40 -40 -22 -38 23 3 6 6 32 28 58 50 27 22 58
48 70 58 11 10 43 37 70 60 27 23 54 47 60 52 6 6 27 24 47 40 72 61 153 131
177 153 14 13 41 35 60 50 20 15 45 36 57 47 43 38 81 70 140 120 33 28 62 52
65 55 3 3 22 20 43 38 31 26 42 30 57 22 40 -21 117 -22 163 -2 43 19 97 65
97 82 0 5 -11 17 -25 28 -31 25 -31 29 1 59 l27 25 30 -30 29 -30 64 64 c35
35 64 66 64 70 0 3 -11 20 -25 36 l-26 30 1060 1062 c583 583 1203 1203 1376
1376 174 173 325 327 336 343 11 15 23 50 26 77 14 127 -111 222 -228 173z"/>
<path d="M8933 8376 c-436 -437 -793 -796 -793 -799 0 -3 30 6 68 20 37 13 75
26 85 28 10 2 44 14 75 26 31 11 145 52 252 89 174 61 286 100 330 117 8 3 23
8 33 10 10 2 28 9 40 15 12 7 24 13 27 13 35 7 77 19 85 25 6 4 48 20 95 35
47 15 141 55 210 88 69 33 128 59 133 59 4 -1 7 2 7 6 0 5 12 14 28 21 95 44
245 170 315 267 70 98 90 156 91 269 1 91 -2 107 -33 183 -18 45 -37 82 -42
82 -5 0 -9 5 -9 10 0 18 -42 70 -122 152 -42 43 -78 78 -80 78 -1 0 -360 -357
-795 -794z"/>
<path d="M2676 8353 c-1 -1 -31 -5 -67 -8 -124 -10 -154 -13 -184 -19 -16 -2
-50 -8 -75 -11 -24 -4 -47 -8 -50 -10 -3 -2 -25 -6 -50 -10 -25 -4 -49 -9 -54
-13 -6 -3 -22 -7 -36 -9 -15 -1 -80 -21 -146 -44 -65 -22 -129 -43 -141 -46
-13 -3 -23 -8 -23 -12 0 -5 138 -139 294 -286 24 -22 112 -105 195 -185 200
-190 233 -220 240 -216 54 30 241 99 271 100 17 1 30 4 30 7 0 6 43 18 85 24
11 2 34 7 50 12 17 5 42 9 58 8 15 -1 27 1 27 4 0 6 68 13 143 15 20 0 37 3
37 6 0 7 296 3 380 -5 36 -3 85 -8 110 -10 25 -2 56 -6 70 -9 14 -3 43 -7 65
-10 62 -8 108 -16 125 -22 8 -3 35 -8 60 -10 24 -3 47 -8 50 -12 3 -4 19 -9
35 -10 66 -8 364 -100 550 -171 44 -17 84 -30 89 -30 5 0 12 -3 15 -8 3 -4 33
-19 66 -32 107 -43 451 -217 545 -276 22 -14 42 -25 44 -25 3 0 25 -13 49 -30
25 -16 48 -30 51 -30 9 0 376 -250 418 -285 10 -8 59 -47 110 -87 51 -39 95
-75 96 -80 6 -14 28 -9 45 10 13 14 17 36 16 88 -1 38 5 89 12 114 7 25 12 48
11 53 -1 4 2 7 7 7 5 0 12 9 16 20 3 11 24 39 45 62 30 33 36 47 29 60 -5 10
-14 18 -18 18 -5 0 -29 16 -53 36 -65 53 -70 57 -108 84 -19 13 -39 28 -45 32
-41 33 -122 90 -260 184 -88 59 -162 112 -163 116 -2 5 -7 6 -12 3 -5 -3 -14
1 -22 8 -7 7 -58 39 -113 72 -55 33 -103 64 -106 68 -3 5 -8 7 -10 6 -2 -2
-15 4 -29 13 -84 52 -603 319 -630 324 -3 0 -16 5 -30 11 -14 6 -54 23 -90 37
-36 15 -78 33 -95 40 -16 7 -55 22 -85 34 -182 68 -226 84 -240 88 -57 13
-166 49 -168 56 -2 4 -9 5 -17 2 -7 -3 -16 0 -20 5 -3 6 -11 9 -16 6 -5 -4
-15 -3 -21 2 -7 4 -44 16 -83 26 -38 9 -79 20 -90 23 -11 3 -31 7 -44 10 -12
3 -53 12 -90 20 -36 9 -75 17 -86 19 -11 2 -48 9 -82 15 -35 6 -75 13 -90 16
-16 2 -41 6 -58 9 -59 10 -183 23 -285 31 -65 6 -450 11 -454 7z"/>
<path d="M611 7250 c-19 -28 -38 -50 -43 -50 -5 0 -7 -4 -4 -9 3 -5 -1 -14 -9
-21 -8 -7 -32 -40 -52 -74 -20 -33 -40 -63 -43 -66 -4 -3 -22 -31 -39 -64 -18
-32 -45 -79 -60 -105 -39 -67 -147 -300 -157 -336 -1 -5 -14 -40 -28 -76 -14
-37 -22 -69 -19 -73 4 -3 2 -6 -4 -6 -6 0 -13 -10 -16 -22 -2 -13 -17 -68 -31
-123 -28 -103 -33 -122 -41 -165 -2 -14 -9 -50 -15 -80 -6 -30 -13 -71 -16
-90 -3 -19 -7 -48 -9 -65 -15 -112 -20 -207 -19 -400 1 -246 6 -318 30 -465 3
-19 8 -48 10 -65 2 -16 7 -41 10 -55 3 -14 7 -37 8 -52 0 -16 4 -28 8 -28 3 0
5 -8 3 -17 -1 -10 2 -24 8 -30 5 -7 7 -13 4 -13 -3 0 1 -24 9 -52 8 -29 16
-66 19 -82 3 -16 10 -37 16 -47 5 -11 7 -19 5 -19 -3 0 2 -19 10 -42 9 -24 17
-52 19 -62 6 -25 24 -86 35 -111 4 -11 20 -54 35 -95 73 -200 169 -411 274
-605 30 -55 62 -113 70 -130 20 -37 96 -161 134 -218 15 -23 30 -50 33 -59 4
-10 9 -18 13 -18 4 0 15 -16 25 -35 11 -19 23 -35 28 -35 5 0 7 -4 4 -9 -4 -5
-3 -11 2 -13 4 -1 27 -32 51 -67 24 -36 48 -70 52 -75 5 -6 48 -63 96 -126 85
-113 192 -245 245 -305 14 -16 36 -41 47 -55 107 -128 486 -513 636 -647 124
-111 133 -119 244 -211 57 -48 120 -102 140 -119 20 -18 41 -33 48 -33 6 0 13
-4 15 -9 4 -13 187 -151 198 -151 6 0 10 -4 10 -8 0 -4 15 -16 33 -27 17 -10
41 -27 51 -37 11 -10 23 -18 27 -18 4 0 14 -6 21 -13 18 -17 232 -157 293
-192 28 -16 60 -37 73 -48 12 -11 22 -17 22 -12 0 4 8 2 18 -6 19 -16 26 -20
171 -101 57 -32 107 -58 111 -58 4 0 13 -7 20 -15 7 -9 15 -13 18 -11 4 4 63
-25 107 -52 6 -4 12 -7 15 -7 3 -1 41 -18 85 -39 115 -55 205 -96 210 -96 2 0
34 -13 69 -30 36 -16 77 -32 91 -36 14 -3 28 -10 31 -15 3 -5 12 -9 21 -9 14
0 61 -16 158 -55 11 -5 22 -9 25 -10 3 0 57 -18 120 -39 63 -21 122 -40 130
-42 8 -2 55 -15 103 -29 48 -14 92 -23 97 -20 4 3 10 1 12 -4 1 -5 17 -12 33
-15 17 -2 40 -7 53 -10 53 -14 69 -17 112 -26 25 -4 56 -11 70 -14 14 -3 39
-8 55 -10 17 -2 41 -7 55 -10 41 -9 146 -24 290 -41 124 -15 214 -19 440 -19
223 0 361 6 436 19 12 2 48 7 80 10 33 4 68 9 79 12 11 2 34 6 50 8 35 6 51 9
120 25 28 6 57 13 65 15 8 2 42 10 75 19 33 9 67 18 76 20 56 14 207 66 274
95 49 22 78 34 85 35 16 3 226 111 228 118 2 4 7 6 12 3 4 -3 13 2 20 10 7 8
17 15 22 15 22 0 280 179 397 275 108 91 240 220 334 330 33 39 63 72 66 75 3
3 15 19 26 35 12 17 39 55 60 85 l40 55 -55 -45 c-30 -25 -66 -55 -80 -68 -14
-13 -41 -33 -60 -45 -19 -11 -40 -28 -47 -37 -7 -8 -13 -10 -13 -5 0 6 -4 5
-8 -1 -14 -22 -188 -126 -322 -192 -74 -37 -137 -67 -140 -67 -3 -1 -41 -15
-86 -32 -82 -32 -303 -102 -339 -107 -11 -2 -28 -7 -38 -11 -10 -4 -21 -5 -24
-2 -3 4 -13 2 -23 -3 -9 -5 -31 -12 -49 -15 -17 -3 -46 -8 -63 -11 -18 -4 -43
-7 -55 -7 -13 -1 -23 -3 -23 -7 0 -3 -12 -6 -27 -6 -32 -2 -118 -12 -118 -14
0 -2 -146 -12 -202 -14 -29 0 -53 -5 -53 -10 0 -5 -6 -3 -13 3 -8 6 -17 8 -20
4 -9 -9 -248 -10 -254 0 -2 4 -12 3 -22 -3 -10 -5 -21 -6 -25 -3 -4 4 -37 8
-74 10 -74 2 -207 11 -207 13 0 3 -90 13 -122 14 -18 1 -33 3 -33 6 0 3 -15 6
-32 7 -18 1 -60 6 -93 13 -33 6 -69 13 -80 15 -170 32 -343 73 -500 120 -66
20 -124 37 -130 38 -9 3 -67 21 -105 33 -8 3 -17 5 -20 5 -3 1 -10 5 -15 9 -6
5 -22 11 -35 14 -36 7 -168 57 -305 116 -66 28 -124 53 -130 54 -32 8 -399
188 -403 199 -2 4 -8 7 -14 7 -10 0 -298 159 -308 169 -3 4 -21 15 -40 25 -19
11 -68 41 -107 67 -40 27 -73 45 -73 41 0 -4 -4 -2 -8 4 -4 6 -49 39 -101 73
-108 72 -151 102 -167 117 -7 6 -35 25 -63 43 -28 18 -51 37 -51 43 0 5 -4 7
-9 4 -5 -3 -11 1 -15 9 -3 8 -12 15 -20 15 -8 0 -16 3 -18 8 -1 4 -57 49 -123
101 -66 52 -124 99 -130 106 -5 6 -23 21 -40 34 -46 35 -130 109 -288 254
-144 131 -355 347 -487 497 -41 47 -78 87 -81 90 -5 5 -259 322 -277 345 -4 6
-26 36 -49 67 -24 31 -43 59 -43 62 0 3 -11 17 -25 32 -14 15 -25 31 -25 36 0
5 -6 16 -13 23 -29 33 -37 45 -37 55 0 5 -4 10 -10 10 -5 0 -10 4 -10 10 0 5
-22 43 -50 84 -27 41 -50 77 -50 80 0 3 -13 24 -29 48 -38 56 -91 148 -98 171
-3 9 -10 17 -15 17 -5 0 -6 4 -3 10 3 6 3 10 -2 10 -4 0 -13 10 -19 23 -6 12
-43 86 -83 163 -39 78 -71 146 -71 152 0 5 -7 15 -15 22 -8 7 -13 16 -10 20 3
5 1 11 -5 15 -5 3 -10 15 -10 25 0 10 -4 20 -8 22 -15 6 -196 483 -217 575 -3
10 -9 34 -14 53 -25 90 -62 238 -67 265 -2 17 -7 37 -9 45 -12 44 -48 261 -59
365 -28 247 -24 720 6 751 4 3 3 16 -2 29 -5 13 -6 25 -3 28 5 5 22 89 37 177
8 52 18 92 35 149 6 19 9 37 6 39 -3 3 -1 10 5 16 5 7 12 27 15 46 3 19 11 38
18 42 7 4 9 8 5 8 -4 0 0 17 9 38 8 20 15 37 14 37 -3 0 7 28 25 73 19 47 4
39 -35 -18z"/>
<path d="M905 7234 c-14 -31 -27 -64 -28 -75 -1 -10 -6 -19 -11 -19 -5 0 -7
-3 -4 -6 4 -3 0 -20 -7 -38 -8 -18 -16 -44 -19 -57 -3 -13 -12 -50 -20 -81 -9
-32 -18 -72 -21 -90 -3 -18 -7 -44 -10 -58 -34 -195 -39 -519 -9 -730 25 -182
25 -183 59 -345 9 -44 21 -88 26 -97 5 -10 8 -18 5 -18 -3 0 -1 -12 4 -27 4
-16 20 -68 35 -118 25 -86 77 -238 95 -280 5 -11 23 -56 40 -100 17 -44 43
-107 58 -140 24 -55 214 -433 237 -473 6 -10 39 -66 75 -125 36 -60 70 -116
75 -125 6 -10 20 -32 33 -49 12 -17 22 -36 22 -42 0 -6 4 -11 10 -11 5 0 16
-15 25 -32 8 -18 24 -44 35 -58 11 -14 46 -62 77 -107 32 -45 69 -94 83 -110
13 -15 24 -30 24 -33 0 -3 4 -9 8 -15 5 -5 36 -46 70 -90 35 -44 67 -85 73
-91 5 -6 24 -28 40 -50 17 -21 39 -48 50 -60 11 -12 34 -38 50 -59 32 -38 132
-149 225 -247 l55 -58 210 140 c116 77 279 186 363 241 167 112 160 99 97 164
-186 193 -390 442 -536 655 -24 36 -46 67 -49 70 -5 5 -65 97 -85 131 -108
184 -155 268 -155 276 0 6 -7 16 -15 23 -8 6 -14 15 -13 18 1 4 -26 64 -60
133 -34 70 -64 139 -68 153 -3 14 -10 29 -15 32 -5 3 -9 14 -9 25 0 10 -5 19
-12 19 -6 0 -9 3 -5 6 4 5 -20 82 -50 154 -3 8 -7 20 -8 25 -2 6 -10 35 -20
65 -43 139 -86 336 -89 407 0 18 -4 33 -7 33 -3 0 -6 6 -6 13 -3 64 -15 192
-18 195 -2 3 0 13 6 23 5 11 6 19 2 19 -13 0 1 239 22 360 10 57 55 219 76
272 22 56 22 58 10 58 -5 0 -61 25 -125 55 -64 30 -120 55 -126 55 -5 0 -10 4
-10 8 0 5 -6 9 -12 9 -7 0 -62 24 -123 53 -222 105 -255 120 -265 120 -5 0
-10 5 -10 12 0 6 -3 8 -6 5 -4 -4 -19 0 -33 8 -14 8 -71 35 -126 60 -55 26
-113 53 -129 61 -16 8 -30 14 -32 14 -1 0 -14 -25 -29 -56z"/>
<path d="M3867 7004 c-1 -2 -27 -5 -57 -8 -59 -6 -100 -13 -140 -22 -14 -3
-34 -8 -45 -11 -23 -5 -34 -8 -55 -15 -8 -3 -33 -11 -55 -18 -48 -15 -192 -83
-220 -103 -19 -14 -18 -16 15 -46 19 -16 78 -72 131 -123 53 -51 154 -147 224
-213 70 -66 162 -153 204 -192 42 -40 80 -73 84 -73 5 0 28 14 53 30 80 56
171 88 319 115 33 6 225 6 265 1 14 -2 45 -7 70 -10 25 -4 74 -14 110 -23 36
-8 70 -16 75 -17 17 -3 149 -48 160 -55 6 -3 16 -6 22 -7 60 -9 421 -206 489
-266 11 -10 26 -18 32 -18 7 0 17 -9 24 -20 7 -11 16 -20 21 -20 8 0 23 -11
57 -42 10 -9 30 -24 44 -33 28 -18 3 -46 186 205 47 63 90 121 97 128 17 18 9
32 -44 72 -26 19 -51 40 -57 45 -6 6 -36 28 -66 50 -30 22 -57 42 -60 45 -16
18 -281 186 -395 251 -49 27 -235 120 -290 144 -45 19 -55 24 -139 60 -32 14
-67 25 -77 25 -10 0 -21 5 -24 10 -3 6 -12 10 -20 10 -8 0 -24 4 -37 9 -13 5
-26 9 -31 10 -4 0 -23 7 -42 15 -19 8 -35 13 -35 10 0 -3 -8 0 -17 5 -10 5
-31 11 -48 14 -16 3 -39 8 -50 11 -81 22 -186 42 -330 61 -48 7 -343 14 -348
9z"/>
<path d="M2916 6358 c-20 -62 -36 -118 -40 -143 -4 -16 -9 -41 -12 -55 -10
-42 -13 -332 -4 -380 4 -25 11 -65 14 -90 3 -25 10 -60 15 -78 5 -18 10 -35
10 -37 -1 -14 14 -75 28 -115 8 -25 16 -52 18 -60 2 -8 4 -16 5 -17 2 -2 3 -6
4 -10 5 -24 30 -89 36 -98 5 -5 9 -14 10 -20 12 -57 101 -239 198 -405 48 -83
167 -266 182 -280 3 -3 25 -32 50 -65 25 -33 47 -62 51 -65 3 -3 12 -14 20
-26 21 -32 134 -158 226 -254 62 -63 85 -82 92 -72 4 8 11 12 14 10 3 -1 17 7
31 20 15 12 28 22 30 22 2 0 47 29 99 64 53 35 98 62 101 58 3 -3 6 -1 6 5 0
9 46 43 85 63 19 9 195 132 195 136 0 2 -35 38 -77 81 -90 91 -114 118 -186
211 -81 106 -146 201 -147 214 0 4 -13 26 -28 50 -33 51 -101 199 -130 283
-27 79 -38 122 -59 230 -8 40 -8 221 0 265 10 57 27 121 38 142 9 17 2 23 -68
55 -43 20 -80 37 -83 38 -3 0 -36 16 -75 34 -76 36 -177 83 -265 124 -30 13
-95 44 -145 67 -49 23 -110 51 -135 62 -25 11 -57 27 -73 35 -22 11 -28 11
-31 1z"/>
<path d="M6970 6307 c-88 -82 -172 -116 -275 -111 -60 2 -85 -3 -85 -19 0 -7
46 -60 103 -118 108 -112 137 -143 232 -254 33 -38 65 -75 70 -81 6 -6 21 -25
35 -43 14 -18 30 -38 36 -44 13 -15 164 -217 184 -247 8 -12 21 -28 28 -36 6
-7 12 -15 12 -19 0 -3 26 -45 59 -93 96 -144 252 -427 329 -602 58 -130 142
-364 168 -465 4 -16 8 -32 9 -35 0 -3 4 -14 8 -25 3 -11 9 -32 12 -47 3 -16 7
-40 10 -55 3 -16 8 -36 11 -45 3 -10 7 -30 10 -45 2 -16 6 -37 9 -48 6 -28 16
-120 19 -181 2 -28 7 -57 10 -63 4 -6 1 -11 -6 -11 -8 0 -9 -3 -3 -8 10 -7 14
-222 4 -222 -3 0 -5 -19 -4 -42 1 -24 -2 -58 -6 -76 -6 -30 -4 -34 36 -62 24
-17 48 -30 53 -30 6 0 12 -3 14 -7 4 -11 86 -63 98 -63 5 0 10 -4 10 -10 0 -5
7 -10 15 -10 8 0 15 -4 15 -10 0 -5 6 -10 13 -10 7 0 23 -9 35 -20 12 -11 24
-20 27 -20 3 0 46 -27 96 -60 50 -33 95 -60 100 -60 5 0 9 -4 9 -10 0 -5 5
-10 10 -10 12 0 124 -72 128 -82 2 -5 8 -8 13 -8 5 0 34 -16 64 -37 31 -20 58
-33 62 -29 13 13 5 465 -11 546 -5 29 -16 102 -21 146 -8 67 -67 327 -95 419
-45 145 -110 330 -138 395 -6 14 -20 48 -31 75 -35 94 -177 392 -197 415 -7 8
-12 17 -11 20 3 13 -208 374 -241 413 -8 9 -12 17 -9 17 4 0 -3 11 -14 24 -12
13 -20 27 -20 30 1 4 -3 12 -9 19 -6 6 -54 73 -106 147 -53 74 -101 138 -106
141 -5 3 -9 10 -8 14 1 4 -6 17 -16 28 -11 12 -35 42 -54 67 -19 25 -38 47
-42 48 -5 2 -8 8 -8 14 0 6 -8 18 -18 27 -10 9 -25 25 -33 37 -15 22 -73 92
-148 179 -105 121 -374 405 -382 405 -2 -1 -29 -24 -59 -53z"/>
<path d="M6155 5833 c-60 -46 -119 -92 -130 -101 -11 -10 -36 -29 -55 -42 -30
-21 -70 -58 -70 -65 0 -2 17 -21 38 -43 21 -22 56 -61 77 -87 22 -26 47 -55
55 -65 8 -9 20 -23 25 -32 162 -240 203 -311 256 -445 74 -187 98 -299 97
-458 0 -85 -6 -129 -24 -190 -27 -93 -37 -77 101 -162 50 -31 92 -59 95 -62 6
-7 41 -28 81 -48 15 -7 32 -20 39 -28 7 -8 16 -15 21 -15 4 0 48 -27 98 -60
50 -33 95 -60 101 -60 5 0 10 -4 10 -10 0 -5 7 -10 15 -10 8 0 15 -4 15 -10 0
-5 7 -10 15 -10 8 0 15 -4 15 -10 0 -5 7 -10 15 -10 8 0 15 -4 15 -10 0 -5 5
-10 11 -10 5 0 27 -11 47 -25 20 -14 40 -25 43 -25 7 0 30 103 37 170 6 64 5
286 -3 345 -6 42 -20 115 -41 215 -3 14 -16 61 -30 105 -14 44 -27 87 -29 95
-4 17 -45 119 -81 200 -51 115 -162 323 -176 328 -4 2 -8 8 -8 13 0 6 -8 22
-19 37 -10 15 -44 66 -76 115 -32 48 -64 92 -72 98 -7 6 -13 18 -13 25 0 8 -4
14 -8 14 -5 0 -24 21 -43 48 -18 26 -43 58 -55 72 -48 56 -117 134 -137 155
-12 13 -45 48 -73 78 -28 30 -55 56 -60 59 -5 3 -58 -32 -119 -79z"/>
<path d="M4795 5703 c-170 -41 -250 -198 -200 -393 22 -83 98 -240 118 -240 4
0 7 -5 7 -11 0 -14 26 -44 115 -134 109 -109 170 -152 295 -212 125 -60 212
-81 318 -79 135 3 235 59 277 156 32 72 27 214 -10 305 -33 80 -84 170 -114
202 -12 12 -21 27 -21 32 0 6 -8 15 -18 20 -17 9 -50 -4 -72 -28 -3 -3 -43
-35 -90 -71 -47 -35 -87 -67 -90 -70 -3 -3 -24 -20 -47 -38 -41 -31 -55 -35
-33 -9 6 7 28 37 50 67 22 30 43 60 47 65 5 6 37 50 72 98 71 99 73 85 -14
153 -79 61 -240 147 -293 158 -9 1 -24 6 -32 9 -40 14 -72 19 -155 22 -49 1
-99 0 -110 -2z"/>
<path d="M4604 4258 c-4 -6 -20 -35 -34 -62 -57 -108 -140 -266 -200 -381 -34
-66 -67 -125 -72 -132 -6 -8 7 -23 44 -50 59 -44 177 -123 183 -123 2 0 21
-12 42 -26 21 -14 47 -30 58 -35 11 -5 43 -23 70 -39 111 -66 354 -179 500
-233 39 -14 102 -36 140 -47 39 -12 77 -24 85 -27 8 -3 24 -8 34 -10 11 -2 46
-10 78 -18 65 -17 147 -34 196 -41 17 -2 49 -7 70 -10 69 -11 406 -13 472 -2
36 5 79 11 95 13 17 2 30 4 30 5 0 1 32 10 70 21 39 10 77 21 85 23 8 3 17 5
20 6 3 1 8 2 13 1 4 0 7 3 7 9 0 5 6 10 13 10 35 0 207 104 275 166 21 19 22
22 8 37 -9 8 -16 18 -16 21 0 3 -10 16 -22 29 -25 26 -40 43 -111 132 -27 33
-52 62 -55 65 -4 3 -25 28 -47 55 -21 28 -42 52 -45 55 -3 3 -27 32 -54 65
-28 33 -56 67 -63 75 -7 8 -43 51 -79 95 -37 44 -77 93 -91 108 l-25 29 -26
-24 c-95 -84 -250 -150 -389 -165 -72 -7 -248 -7 -288 2 -16 3 -46 8 -65 11
-170 24 -470 139 -661 253 -19 11 -47 28 -64 37 -16 9 -32 20 -35 24 -3 4 -16
13 -30 20 -14 7 -41 26 -61 41 -42 33 -45 34 -55 17z"/>
<path d="M3896 2912 c-2 -4 -27 -52 -56 -107 -29 -55 -67 -127 -85 -160 -18
-33 -54 -103 -80 -155 -27 -52 -52 -96 -57 -98 -4 -2 -8 -10 -8 -17 0 -7 -15
-39 -33 -72 -50 -90 -81 -153 -76 -156 26 -20 141 -97 145 -97 3 0 14 -9 26
-20 12 -11 28 -20 35 -20 7 0 13 -4 13 -10 0 -5 7 -10 15 -10 8 0 15 -4 15
-10 0 -5 7 -10 15 -10 8 0 15 -4 15 -10 0 -5 5 -10 11 -10 6 0 30 -13 54 -30
24 -16 48 -30 54 -30 6 0 11 -4 11 -10 0 -5 4 -10 9 -10 5 0 46 -22 90 -50 44
-27 82 -50 84 -50 2 0 51 -26 108 -58 58 -33 124 -67 147 -77 23 -11 42 -22
42 -27 0 -4 3 -7 8 -6 4 1 65 -26 136 -60 280 -137 711 -301 964 -369 6 -1 18
-5 25 -6 6 -2 30 -7 52 -12 22 -4 46 -12 53 -18 6 -5 12 -7 12 -4 0 3 14 2 32
-3 17 -5 50 -12 72 -16 23 -3 43 -10 44 -15 2 -5 7 -7 11 -5 4 3 25 1 47 -4
21 -5 59 -11 84 -15 25 -3 52 -8 60 -10 17 -5 38 -8 153 -25 259 -38 642 -45
867 -15 19 3 55 8 80 11 334 44 655 167 934 356 50 35 128 100 193 162 l72 69
-19 26 c-10 14 -29 38 -42 53 -28 32 -41 48 -93 113 -22 28 -47 57 -55 65 -9
8 -47 53 -85 100 -37 47 -71 87 -74 90 -4 3 -36 41 -71 85 -36 44 -67 82 -70
85 -3 3 -25 30 -50 60 -47 57 -77 92 -122 144 l-26 31 -49 -45 c-81 -74 -112
-100 -122 -100 -5 0 -11 -4 -13 -8 -5 -13 -130 -87 -213 -126 -106 -50 -125
-58 -175 -71 -3 -1 -13 -5 -22 -8 -45 -17 -54 -20 -63 -22 -61 -8 -105 -19
-105 -24 0 -4 -8 -7 -17 -8 -35 -2 -128 -15 -134 -19 -3 -1 -46 -6 -95 -10
-162 -14 -473 -8 -576 11 -14 3 -46 7 -70 10 -203 21 -670 147 -863 231 -22
10 -47 19 -55 20 -8 2 -43 17 -78 34 -34 16 -66 30 -71 30 -4 0 -40 16 -80 35
-39 19 -76 35 -81 35 -5 0 -15 6 -22 13 -7 8 -25 18 -38 23 -29 10 -262 134
-270 143 -3 3 -23 15 -45 27 -44 23 -83 45 -99 56 -94 67 -327 214 -330 210z"/>
</g>
</svg>
