<?xml version="1.0" standalone="no"?>
<!DOCTYPE svg PUBLIC "-//W3C//DTD SVG 20010904//EN"
 "http://www.w3.org/TR/2001/REC-SVG-20010904/DTD/svg10.dtd">
<svg version="1.0" xmlns="http://www.w3.org/2000/svg"
 width="700.000000pt" height="700.000000pt" viewBox="0 0 700.000000 700.000000"
 preserveAspectRatio="xMidYMid meet">
<metadata>
Created by potrace 1.14, written by Peter Selinger 2001-2017
</metadata>
<g transform="translate(0.000000,700.000000) scale(0.100000,-0.100000)"
fill="#000000" stroke="none">
<path d="M0 3500 l0 -3500 3500 0 3500 0 0 3500 0 3500 -3500 0 -3500 0 0
-3500z m5175 2095 c22 -13 64 -48 94 -78 l54 -55 -26 -44 c-37 -63 -297 -337
-506 -533 -99 -93 -185 -171 -191 -173 -5 -2 -10 2 -10 9 0 26 233 676 257
719 97 170 210 223 328 155z m306 -73 c15 -13 22 -30 22 -51 0 -30 -52 -85
-582 -615 -472 -472 -582 -587 -577 -603 9 -28 -37 -71 -59 -53 -12 10 -16 9
-21 -5 -4 -9 -1 -20 5 -25 9 -5 4 -14 -16 -30 -21 -16 -36 -20 -62 -16 -36 6
-27 13 -336 -251 -93 -79 -94 -79 94 141 137 161 145 171 142 209 -3 50 23 94
45 76 20 -17 44 5 26 23 -18 18 36 72 55 56 12 -9 45 19 172 146 102 101 161
154 166 146 15 -24 55 -31 86 -14 50 25 650 631 698 704 38 57 42 70 38 108
-4 35 -1 45 16 57 29 20 60 19 88 -3z m42 -257 c46 -54 76 -119 77 -161 0 -45
-46 -129 -93 -170 -74 -63 -160 -103 -419 -194 -139 -50 -257 -90 -263 -90 -5
0 139 149 320 330 181 182 332 330 335 330 3 0 23 -20 43 -45z m-2609 -325
c359 -71 780 -268 1090 -509 33 -25 64 -49 69 -52 4 -3 -3 -23 -17 -44 -18
-26 -26 -51 -26 -81 0 -23 -4 -45 -10 -49 -5 -3 -54 28 -109 68 -128 96 -239
163 -393 237 -223 107 -406 157 -615 167 -150 7 -250 -5 -356 -44 l-68 -24
-42 37 c-85 76 -257 242 -257 247 0 9 128 47 212 63 108 20 382 12 522 -16z
m-1249 -443 c-26 -63 -54 -193 -66 -305 -20 -195 10 -412 91 -654 240 -718
965 -1413 1749 -1675 542 -181 1055 -140 1390 113 78 58 79 49 4 -37 -184
-213 -432 -352 -723 -405 -128 -24 -398 -24 -535 0 -240 40 -437 106 -680 226
-289 143 -541 325 -790 575 -537 535 -779 1125 -680 1652 17 91 66 235 106
315 30 60 136 228 144 228 2 0 -2 -15 -10 -33z m336 -68 c107 -49 198 -94 202
-98 5 -5 2 -29 -7 -54 -75 -222 -16 -535 162 -849 65 -114 184 -277 270 -369
34 -37 62 -69 62 -73 0 -3 -67 -51 -149 -106 l-150 -100 -70 78 c-294 325
-501 700 -577 1052 -26 119 -26 387 0 480 23 83 43 130 54 130 5 0 96 -41 203
-91z m1304 -54 c180 -45 356 -131 518 -250 l88 -66 -41 -57 c-22 -31 -48 -67
-58 -79 l-17 -22 -64 49 c-83 62 -206 123 -306 151 -113 31 -250 25 -319 -14
l-48 -27 -107 99 c-58 55 -121 115 -139 134 l-33 34 24 16 c103 67 311 81 502
32z m-499 -319 c145 -68 178 -87 176 -102 -19 -136 -9 -207 43 -321 42 -91 84
-153 157 -229 l58 -61 -122 -82 -123 -82 -53 58 c-142 154 -255 340 -307 503
-33 102 -45 262 -26 346 7 30 14 54 15 54 2 0 83 -38 182 -84z m1769 -176
c236 -292 403 -622 466 -921 21 -99 38 -339 24 -339 -4 0 -81 46 -169 102
l-162 103 -1 120 c-1 182 -40 329 -138 530 -29 61 -85 157 -123 215 -64 96
-229 298 -280 344 -32 28 -27 36 18 36 46 0 85 17 115 50 l20 22 68 -73 c38
-41 111 -126 162 -189z m-411 -85 c112 -145 179 -270 223 -412 21 -72 26 -109
27 -205 1 -66 -3 -121 -9 -126 -6 -6 -66 26 -166 90 l-157 99 10 37 c37 132
-38 341 -180 505 l-42 49 77 59 77 59 39 -37 c21 -21 67 -74 101 -118z m-584
33 c30 -15 67 -38 82 -50 l28 -23 -50 -68 c-53 -72 -47 -73 35 -8 l50 41 18
-23 c33 -40 67 -121 67 -160 0 -82 -46 -122 -140 -122 -153 1 -335 170 -348
322 -4 50 -2 55 32 89 36 36 37 36 104 32 47 -2 84 -11 122 -30z m-188 -603
c221 -147 473 -181 610 -83 35 25 18 39 172 -146 128 -154 126 -148 49 -193
-186 -109 -465 -89 -768 56 -96 46 -237 130 -248 148 -5 8 119 253 128 253 2
0 27 -16 57 -35z m-249 -599 c216 -135 447 -232 661 -278 142 -30 367 -30 479
0 90 25 198 78 255 127 l39 34 147 -176 147 -176 -33 -35 c-52 -55 -170 -127
-261 -160 -127 -46 -229 -62 -396 -62 -296 0 -575 72 -906 235 -141 69 -387
214 -400 235 -6 10 151 320 162 320 2 0 51 -29 106 -64z"/>
</g>
</svg>
